<svg width="2251" height="509" viewBox="0 0 2251 509" fill="none" xmlns="http://www.w3.org/2000/svg">
<path d="M113.5 407L0 57H102L197.5 360H146L246.5 57H337.5L432.5 360H383L481.5 57H576L462.5 407H356.5L275.5 149.5H304L219.5 407H113.5Z" fill="black"/>
<path d="M672.453 407V356.5L665.953 344V251C665.953 236 661.286 224.5 651.953 216.5C642.953 208.167 628.453 204 608.453 204C595.453 204 582.286 206.167 568.953 210.5C555.62 214.5 544.286 220.167 534.953 227.5L502.953 163C518.286 153 536.62 145.333 557.953 140C579.62 134.333 601.12 131.5 622.453 131.5C666.453 131.5 700.453 141.667 724.453 162C748.786 182 760.953 213.5 760.953 256.5V407H672.453ZM592.453 411.5C570.786 411.5 552.453 407.833 537.453 400.5C522.453 393.167 510.953 383.167 502.953 370.5C495.286 357.833 491.453 343.667 491.453 328C491.453 311.333 495.62 297 503.953 285C512.62 272.667 525.786 263.333 543.453 257C561.12 250.333 583.953 247 611.953 247H675.953V296.5H624.953C609.62 296.5 598.786 299 592.453 304C586.453 309 583.453 315.667 583.453 324C583.453 332.333 586.62 339 592.953 344C599.286 349 607.953 351.5 618.953 351.5C629.286 351.5 638.62 349 646.953 344C655.62 338.667 661.953 330.667 665.953 320L678.953 355C673.953 373.667 664.12 387.833 649.453 397.5C635.12 406.833 616.12 411.5 592.453 411.5Z" fill="black"/>
<path d="M876.836 508.5C850.836 508.5 826.003 505.5 802.336 499.5C779.003 493.5 759.003 484.667 742.336 473L776.836 406.5C788.169 415.5 802.169 422.5 818.836 427.5C835.836 432.833 852.336 435.5 868.336 435.5C894.003 435.5 912.503 429.833 923.836 418.5C935.169 407.5 940.836 391.333 940.836 370V338L945.836 262L945.336 185.5V136H1035.84V357.5C1035.84 408.833 1022 446.833 994.336 471.5C966.669 496.167 927.503 508.5 876.836 508.5ZM860.336 393C836.336 393 814.169 387.667 793.836 377C773.836 366 757.669 350.833 745.336 331.5C733.336 311.833 727.336 288.667 727.336 262C727.336 235.333 733.336 212.333 745.336 193C757.669 173.333 773.836 158.167 793.836 147.5C814.169 136.833 836.336 131.5 860.336 131.5C883.336 131.5 903.003 136.167 919.336 145.5C935.669 154.5 948.003 168.667 956.336 188C965.003 207.333 969.336 232 969.336 262C969.336 292 965.003 316.667 956.336 336C948.003 355.333 935.669 369.667 919.336 379C903.003 388.333 883.336 393 860.336 393ZM882.836 317.5C894.169 317.5 904.169 315.167 912.836 310.5C921.836 305.833 928.836 299.333 933.836 291C939.169 282.667 941.836 273 941.836 262C941.836 251 939.169 241.333 933.836 233C928.836 224.667 921.836 218.333 912.836 214C904.169 209.333 894.169 207 882.836 207C871.503 207 861.336 209.333 852.336 214C843.336 218.333 836.169 224.667 830.836 233C825.836 241.333 823.336 251 823.336 262C823.336 273 825.836 282.667 830.836 291C836.169 299.333 843.336 305.833 852.336 310.5C861.336 315.167 871.503 317.5 882.836 317.5Z" fill="black"/>
<path d="M1063.38 508.5C1049.04 508.5 1034.54 506.167 1019.88 501.5C1005.54 497.167 993.875 491.333 984.875 484L1017.88 417.5C1023.54 422.5 1030.04 426.333 1037.38 429C1045.04 432 1052.54 433.5 1059.88 433.5C1070.21 433.5 1078.37 431.167 1084.38 426.5C1090.38 421.833 1095.54 414.5 1099.88 404.5L1112.38 373L1119.88 363.5L1211.88 136H1302.38L1185.38 418C1176.04 441.333 1165.21 459.5 1152.88 472.5C1140.88 485.833 1127.38 495.167 1112.38 500.5C1097.71 505.833 1081.37 508.5 1063.38 508.5ZM1100.38 418.5L980.875 136H1078.38L1166.38 355L1100.38 418.5Z" fill="black"/>
<path d="M1360.93 411.5C1338.93 411.5 1319.1 407.167 1301.43 398.5C1284.1 389.833 1270.43 376.333 1260.43 358C1250.77 339.333 1245.93 315.833 1245.93 287.5V136H1340.93V272C1340.93 293 1344.77 308 1352.43 317C1360.43 326 1371.6 330.5 1385.93 330.5C1395.27 330.5 1403.77 328.333 1411.43 324C1419.1 319.667 1425.27 312.833 1429.93 303.5C1434.6 293.833 1436.93 281.5 1436.93 266.5V136H1531.93V407H1441.43V330.5L1458.93 352C1449.6 372 1436.1 387 1418.43 397C1400.77 406.667 1381.6 411.5 1360.93 411.5Z" fill="black"/>
<path d="M1569.06 407V127.937C1569.06 93.9223 1579.11 66.8491 1599.2 46.7177C1619.64 26.2392 1648.75 16 1686.52 16C1698.64 16 1710.6 17.2148 1722.38 19.6445C1734.16 22.0741 1744.03 25.7186 1752 30.5779L1727.57 100.344C1723.42 97.9139 1718.74 96.0049 1713.54 94.6165C1708.34 92.8811 1703.15 92.0133 1697.95 92.0133C1687.55 92.0133 1679.41 95.1372 1673.52 101.385C1667.98 107.285 1665.21 116.483 1665.21 128.979V149.284L1667.81 190.414V407H1569.06ZM1528 209.157V136H1732.25V209.157H1528Z" fill="black"/>
<path d="M1897 402.494V351.932L1890.5 339.417V246.303C1890.5 231.284 1885.83 219.77 1876.5 211.76C1867.5 203.417 1853 199.245 1833 199.245C1820 199.245 1806.83 201.414 1793.5 205.753C1780.17 209.758 1768.83 215.431 1759.5 222.774L1727.5 158.194C1742.83 148.182 1761.17 140.506 1782.5 135.166C1804.17 129.492 1825.67 126.656 1847 126.656C1891 126.656 1925 136.835 1949 157.193C1973.33 177.218 1985.5 208.756 1985.5 251.809V402.494H1897ZM1817 407C1795.33 407 1777 403.329 1762 395.986C1747 388.644 1735.5 378.632 1727.5 365.95C1719.83 353.267 1716 339.083 1716 323.397C1716 306.71 1720.17 292.359 1728.5 280.344C1737.17 267.996 1750.33 258.651 1768 252.31C1785.67 245.635 1808.5 242.298 1836.5 242.298H1900.5V291.859H1849.5C1834.17 291.859 1823.33 294.362 1817 299.368C1811 304.374 1808 311.049 1808 319.392C1808 327.736 1811.17 334.411 1817.5 339.417C1823.83 344.423 1832.5 346.926 1843.5 346.926C1853.83 346.926 1863.17 344.423 1871.5 339.417C1880.17 334.077 1886.5 326.067 1890.5 315.387L1903.5 350.431C1898.5 369.12 1888.67 383.304 1874 392.983C1859.67 402.328 1840.67 407 1817 407Z" fill="black"/>
<path d="M1965.46 402.494V131.161H2055.96V210.258L2042.46 187.731C2050.46 167.372 2063.46 152.187 2081.46 142.175C2099.46 131.829 2121.3 126.656 2146.96 126.656V212.261C2142.63 211.593 2138.8 211.26 2135.46 211.26C2132.46 210.926 2129.13 210.759 2125.46 210.759C2106.13 210.759 2090.46 216.099 2078.46 226.779C2066.46 237.125 2060.46 254.146 2060.46 277.841V402.494H1965.46Z" fill="black"/>
<path d="M2145.5 402.494V126.656H2240.5V402.494H2145.5ZM2193 101.124C2175.67 101.124 2161.67 96.2849 2151 86.6064C2140.33 76.9278 2135 64.9131 2135 50.5621C2135 36.2111 2140.33 24.1964 2151 14.5178C2161.67 4.83928 2175.67 0 2193 0C2210.33 0 2224.33 4.67241 2235 14.0172C2245.67 23.0283 2251 34.7093 2251 49.0603C2251 64.0787 2245.67 76.5941 2235 86.6064C2224.67 96.2849 2210.67 101.124 2193 101.124Z" fill="black"/>
</svg>
